<svg width="162" height="42" viewBox="0 0 162 42" fill="none" xmlns="http://www.w3.org/2000/svg">
<g clip-path="url(#clip0_1294_15129)">
<path d="M7.569 27.515C7.569 28.5397 7.76233 29.516 8.149 30.444C8.555 31.3527 9.09633 32.155 9.773 32.851C10.469 33.5277 11.2713 34.069 12.18 34.475C13.0887 34.8617 14.065 35.055 15.109 35.055C16.153 35.055 17.1293 34.8617 18.038 34.475C18.966 34.069 19.7683 33.5277 20.445 32.851C21.1217 32.155 21.6533 31.3527 22.04 30.444C22.4267 29.516 22.62 28.5397 22.62 27.515C22.62 26.471 22.4267 25.4947 22.04 24.586C21.6533 23.658 21.1217 22.8557 20.445 22.179C19.7683 21.5023 18.966 20.9707 18.038 20.584C17.1293 20.178 16.153 19.975 15.109 19.975C14.0843 19.975 13.108 20.178 12.18 20.584C11.2713 20.9707 10.469 21.5023 9.773 22.179C9.09633 22.8557 8.555 23.658 8.149 24.586C7.76233 25.4947 7.569 26.471 7.569 27.515ZM1.276 27.515C1.276 25.601 1.64333 23.8127 2.378 22.15C3.11267 20.468 4.10833 18.9987 5.365 17.742C6.62167 16.4853 8.08133 15.4993 9.744 14.784C11.426 14.0493 13.2143 13.682 15.109 13.682C17.023 13.682 18.8113 14.0493 20.474 14.784C22.156 15.4993 23.6157 16.4853 24.853 17.742C26.1097 18.9987 27.0957 20.468 27.811 22.15C28.5457 23.8127 28.913 25.601 28.913 27.515C28.913 29.4097 28.5457 31.198 27.811 32.88C27.0957 34.562 26.1097 36.0313 24.853 37.288C23.6157 38.5447 22.156 39.5403 20.474 40.275C18.8113 40.9903 17.023 41.348 15.109 41.348C13.2143 41.348 11.426 40.9903 9.744 40.275C8.08133 39.5403 6.62167 38.5447 5.365 37.288C4.10833 36.0313 3.11267 34.562 2.378 32.88C1.64333 31.198 1.276 29.4097 1.276 27.515ZM36.5985 27.515C36.5985 28.5397 36.7918 29.516 37.1785 30.444C37.5845 31.3527 38.1258 32.155 38.8025 32.851C39.4985 33.5277 40.3008 34.069 41.2095 34.475C42.1181 34.8617 43.0945 35.055 44.1385 35.055C45.1825 35.055 46.1588 34.8617 47.0675 34.475C47.9955 34.069 48.7978 33.5277 49.4745 32.851C50.1511 32.155 50.6828 31.3527 51.0695 30.444C51.4561 29.516 51.6495 28.5397 51.6495 27.515C51.6495 26.471 51.4561 25.4947 51.0695 24.586C50.6828 23.658 50.1511 22.8557 49.4745 22.179C48.7978 21.5023 47.9955 20.9707 47.0675 20.584C46.1588 20.178 45.1825 19.975 44.1385 19.975C43.1138 19.975 42.1375 20.178 41.2095 20.584C40.3008 20.9707 39.4985 21.5023 38.8025 22.179C38.1258 22.8557 37.5845 23.658 37.1785 24.586C36.7918 25.4947 36.5985 26.471 36.5985 27.515ZM30.3055 27.515C30.3055 25.601 30.6728 23.8127 31.4075 22.15C32.1421 20.468 33.1378 18.9987 34.3945 17.742C35.6511 16.4853 37.1108 15.4993 38.7735 14.784C40.4555 14.0493 42.2438 13.682 44.1385 13.682C46.0525 13.682 47.8408 14.0493 49.5035 14.784C51.1855 15.4993 52.6451 16.4853 53.8825 17.742C55.1391 18.9987 56.1251 20.468 56.8405 22.15C57.5751 23.8127 57.9425 25.601 57.9425 27.515C57.9425 29.4097 57.5751 31.198 56.8405 32.88C56.1251 34.562 55.1391 36.0313 53.8825 37.288C52.6451 38.5447 51.1855 39.5403 49.5035 40.275C47.8408 40.9903 46.0525 41.348 44.1385 41.348C42.2438 41.348 40.4555 40.9903 38.7735 40.275C37.1108 39.5403 35.6511 38.5447 34.3945 37.288C33.1378 36.0313 32.1421 34.562 31.4075 32.88C30.6728 31.198 30.3055 29.4097 30.3055 27.515ZM86.9719 27.486V27.631C86.9526 28.8877 86.7786 30.1057 86.4499 31.285C86.1212 32.445 85.6476 33.5373 85.0289 34.562C84.4296 35.5673 83.7046 36.4857 82.8539 37.317C82.0226 38.1483 81.0946 38.8637 80.0699 39.463C79.0452 40.0623 77.9432 40.5263 76.7639 40.855C75.6039 41.1837 74.3956 41.348 73.1389 41.348C71.2249 41.348 69.4269 40.9903 67.7449 40.275C66.0822 39.5403 64.6226 38.5447 63.3659 37.288C62.1286 36.0313 61.1426 34.562 60.4079 32.88C59.6926 31.198 59.3349 29.4097 59.3349 27.515C59.3349 25.601 59.6926 23.803 60.4079 22.121C61.1426 20.439 62.1286 18.9793 63.3659 17.742C64.6226 16.4853 66.0822 15.4993 67.7449 14.784C69.4269 14.0493 71.2249 13.682 73.1389 13.682C74.5309 13.682 75.8552 13.885 77.1119 14.291C78.3879 14.6777 79.5769 15.2287 80.6789 15.944V6.896C80.6789 6.432 80.7562 6.00667 80.9109 5.62C81.0656 5.214 81.2782 4.866 81.5489 4.576C81.8389 4.26666 82.1676 4.03466 82.5349 3.88C82.9216 3.706 83.3469 3.619 83.8109 3.619C84.2556 3.619 84.6712 3.706 85.0579 3.88C85.4446 4.03466 85.7732 4.26666 86.0439 4.576C86.3339 4.866 86.5562 5.214 86.7109 5.62C86.8849 6.00667 86.9719 6.432 86.9719 6.896V27.486ZM80.6789 27.515C80.6789 26.471 80.4759 25.4947 80.0699 24.586C79.6832 23.658 79.1419 22.8557 78.4459 22.179C77.7692 21.5023 76.9766 20.9707 76.0679 20.584C75.1592 20.178 74.1829 19.975 73.1389 19.975C72.0949 19.975 71.1186 20.178 70.2099 20.584C69.3012 20.9707 68.4989 21.5023 67.8029 22.179C67.1262 22.8557 66.5946 23.658 66.2079 24.586C65.8212 25.4947 65.6279 26.471 65.6279 27.515C65.6279 28.5397 65.8212 29.516 66.2079 30.444C66.5946 31.3527 67.1262 32.155 67.8029 32.851C68.4796 33.5277 69.2722 34.069 70.1809 34.475C71.1089 34.8617 72.0949 35.055 73.1389 35.055C74.1829 35.055 75.1592 34.8617 76.0679 34.475C76.9766 34.069 77.7692 33.5277 78.4459 32.851C79.1419 32.155 79.6832 31.3527 80.0699 30.444C80.4759 29.516 80.6789 28.5397 80.6789 27.515ZM101.543 34.707C101.988 34.707 102.394 34.794 102.761 34.968C103.148 35.142 103.477 35.3837 103.747 35.693C104.037 35.983 104.26 36.3213 104.414 36.708C104.569 37.0947 104.646 37.5007 104.646 37.926C104.646 38.8153 104.356 39.55 103.776 40.13C103.196 40.71 102.452 41 101.543 41C100.229 41 98.9915 40.7777 97.8315 40.333C96.6908 39.8883 95.6855 39.2697 94.8155 38.477C93.9455 37.6843 93.2495 36.7273 92.7275 35.606C92.2248 34.4847 91.9638 33.2473 91.9445 31.894V31.691V6.78C91.9445 6.33533 92.0218 5.91966 92.1765 5.533C92.3312 5.14633 92.5438 4.81767 92.8145 4.547C93.1045 4.257 93.4332 4.03466 93.8005 3.88C94.1678 3.706 94.5642 3.619 94.9895 3.619C95.4148 3.619 95.8208 3.706 96.2075 3.88C96.6135 4.03466 96.9615 4.257 97.2515 4.547C97.5608 4.81767 97.8025 5.14633 97.9765 5.533C98.1505 5.91966 98.2375 6.33533 98.2375 6.78V31.691C98.2375 32.6963 98.5468 33.4503 99.1655 33.953C99.7842 34.4557 100.577 34.707 101.543 34.707ZM112.8 30.328C113.052 31.0627 113.4 31.72 113.844 32.3C114.308 32.88 114.84 33.3827 115.439 33.808C116.039 34.214 116.696 34.533 117.411 34.765C118.127 34.9777 118.881 35.084 119.673 35.084C121.665 35.084 123.231 34.562 124.371 33.518C124.951 33.112 125.502 32.8703 126.024 32.793C126.546 32.7157 127.039 32.7543 127.503 32.909C127.832 33.025 128.122 33.2087 128.373 33.46C128.644 33.692 128.866 33.953 129.04 34.243C129.234 34.5523 129.369 34.8907 129.446 35.258C129.543 35.606 129.562 35.9637 129.504 36.331C129.466 36.6983 129.35 37.0657 129.156 37.433C128.982 37.781 128.712 38.1 128.344 38.39C127.919 38.7767 127.436 39.1537 126.894 39.521C126.353 39.869 125.725 40.1783 125.009 40.449C124.313 40.7197 123.521 40.9323 122.631 41.087C121.761 41.261 120.775 41.348 119.673 41.348C117.759 41.348 115.961 40.9903 114.279 40.275C112.597 39.5403 111.128 38.5447 109.871 37.288C108.615 36.0313 107.619 34.5717 106.884 32.909C106.15 31.227 105.782 29.429 105.782 27.515C105.782 25.601 106.15 23.803 106.884 22.121C107.619 20.439 108.615 18.9793 109.871 17.742C111.128 16.4853 112.597 15.4993 114.279 14.784C115.961 14.0493 117.759 13.682 119.673 13.682C121.568 13.682 123.347 14.0397 125.009 14.755C126.691 15.4703 128.161 16.4467 129.417 17.684C130.693 18.902 131.699 20.3423 132.433 22.005C133.168 23.6677 133.555 25.4463 133.593 27.341C133.593 28.2303 133.303 28.9553 132.723 29.516C132.163 30.0573 131.418 30.328 130.49 30.328H112.8ZM127.126 25.108C126.914 24.3153 126.575 23.6 126.111 22.962C125.647 22.324 125.096 21.7827 124.458 21.338C123.82 20.8933 123.105 20.555 122.312 20.323C121.539 20.091 120.708 19.975 119.818 19.975C118.929 19.975 118.088 20.1007 117.295 20.352C116.522 20.6033 115.816 20.9513 115.178 21.396C114.56 21.8407 114.028 22.382 113.583 23.02C113.139 23.6387 112.81 24.3347 112.597 25.108H127.126ZM142.931 29.661C142.099 29.313 141.239 28.936 140.35 28.53C139.46 28.1047 138.648 27.5923 137.914 26.993C137.179 26.3743 136.57 25.6397 136.087 24.789C135.623 23.9383 135.391 22.9233 135.391 21.744C135.391 20.526 135.632 19.424 136.116 18.438C136.599 17.4327 137.266 16.582 138.117 15.886C138.987 15.1707 140.011 14.6293 141.191 14.262C142.37 13.8753 143.665 13.682 145.077 13.682C145.889 13.682 146.73 13.7497 147.6 13.885C148.47 14.001 149.291 14.204 150.065 14.494C150.857 14.7647 151.563 15.132 152.182 15.596C152.8 16.0407 153.274 16.582 153.603 17.22C153.893 17.8387 153.989 18.4573 153.893 19.076C153.815 19.6753 153.603 20.1683 153.255 20.555C152.868 20.9997 152.394 21.2993 151.834 21.454C151.273 21.6087 150.712 21.5603 150.152 21.309C149.746 21.0577 149.369 20.8353 149.021 20.642C148.692 20.4487 148.344 20.2843 147.977 20.149C147.629 20.0137 147.252 19.917 146.846 19.859C146.459 19.7817 146.014 19.743 145.512 19.743C144.255 19.743 143.298 19.917 142.641 20.265C142.003 20.5937 141.684 21.106 141.684 21.802C141.684 22.1693 141.8 22.4787 142.032 22.73C142.283 22.962 142.612 23.1747 143.018 23.368C143.443 23.5613 143.946 23.745 144.526 23.919C145.125 24.093 145.773 24.2863 146.469 24.499C147.609 24.847 148.692 25.253 149.717 25.717C150.761 26.181 151.669 26.7513 152.443 27.428C153.235 28.0853 153.864 28.8683 154.328 29.777C154.792 30.6857 155.024 31.7587 155.024 32.996C155.024 34.156 154.772 35.2483 154.27 36.273C153.786 37.2783 153.11 38.158 152.24 38.912C151.37 39.666 150.326 40.2653 149.108 40.71C147.909 41.1353 146.604 41.348 145.193 41.348C144.303 41.348 143.356 41.261 142.351 41.087C141.365 40.9323 140.398 40.6617 139.451 40.275C138.523 39.869 137.662 39.3567 136.87 38.738C136.077 38.1 135.439 37.317 134.956 36.389C134.472 35.461 134.318 34.6393 134.492 33.924C134.685 33.1893 135.072 32.6383 135.652 32.271C136.232 31.9037 136.937 31.7683 137.769 31.865C138.6 31.9617 139.412 32.3773 140.205 33.112C140.437 33.402 140.727 33.6823 141.075 33.953C141.423 34.2043 141.809 34.4363 142.235 34.649C142.66 34.8423 143.114 34.997 143.598 35.113C144.1 35.229 144.622 35.287 145.164 35.287C145.647 35.287 146.101 35.2387 146.527 35.142C146.952 35.026 147.329 34.8713 147.658 34.678C147.986 34.4847 148.247 34.2527 148.441 33.982C148.634 33.7113 148.731 33.402 148.731 33.054C148.731 32.648 148.518 32.2807 148.093 31.952C147.667 31.604 147.145 31.285 146.527 30.995C145.927 30.705 145.289 30.4537 144.613 30.241C143.955 30.009 143.395 29.8157 142.931 29.661Z" fill="white"/>
<path d="M154.315 7.29049V11.0974C154.315 11.1421 154.306 11.1844 154.289 11.2241C154.274 11.2613 154.251 11.2949 154.222 11.3247C154.192 11.352 154.157 11.3743 154.117 11.3917C154.078 11.4066 154.035 11.4141 153.991 11.4141C153.904 11.4141 153.829 11.383 153.767 11.3209C153.705 11.2589 153.674 11.1844 153.674 11.0974V7.29049H152.419C152.374 7.29049 152.332 7.2818 152.292 7.26441C152.255 7.24703 152.221 7.22344 152.191 7.19364C152.164 7.16384 152.142 7.13031 152.124 7.09306C152.109 7.05333 152.102 7.01111 152.102 6.96641C152.102 6.87701 152.133 6.80127 152.195 6.73919C152.257 6.6771 152.332 6.64606 152.419 6.64606H155.57C155.659 6.64606 155.735 6.67835 155.797 6.74291C155.859 6.805 155.89 6.88074 155.89 6.97014C155.89 7.05954 155.859 7.13528 155.797 7.19736C155.735 7.25945 155.659 7.29049 155.57 7.29049H154.315ZM156.958 7.82689V11.0974C156.958 11.1868 156.926 11.2626 156.861 11.3247C156.799 11.3843 156.724 11.4141 156.638 11.4141C156.548 11.4141 156.471 11.3843 156.407 11.3247C156.345 11.2626 156.313 11.1868 156.313 11.0974V6.96269C156.313 6.87329 156.345 6.79879 156.407 6.73919C156.471 6.6771 156.548 6.64606 156.638 6.64606H156.649C156.733 6.65103 156.806 6.68207 156.869 6.73919L158.578 8.81029L160.288 6.73919C160.34 6.692 160.4 6.6622 160.467 6.64979C160.472 6.64979 160.478 6.64979 160.485 6.64979C160.493 6.6473 160.499 6.64606 160.504 6.64606C160.526 6.64606 160.544 6.6473 160.556 6.64979C160.636 6.65972 160.703 6.69449 160.757 6.75409C160.812 6.8112 160.839 6.88074 160.839 6.96269V11.0974C160.839 11.1868 160.807 11.2626 160.743 11.3247C160.68 11.3843 160.605 11.4141 160.515 11.4141C160.428 11.4141 160.353 11.3843 160.288 11.3247C160.226 11.2626 160.195 11.1868 160.195 11.0974V7.83061L158.824 9.48824L158.794 9.52549C158.757 9.56274 158.722 9.58757 158.69 9.59999C158.588 9.64469 158.493 9.63103 158.403 9.55901L158.37 9.52921L156.958 7.82689Z" fill="white"/>
</g>
<defs>
<clipPath id="clip0_1294_15129">
<rect width="162" height="42" fill="white"/>
</clipPath>
</defs>
</svg>
